<?xml version="1.0" encoding="utf-8"?>
<!DOCTYPE svg PUBLIC "-//W3C//DTD SVG 1.1//EN" "http://www.w3.org/Graphics/SVG/1.1/DTD/svg11.dtd">
<svg version="1.1" id="图形" xmlns="http://www.w3.org/2000/svg" xmlns:xlink="http://www.w3.org/1999/xlink" x="0px" y="0px" width="1024px" height="1024px" viewBox="0 0 1024 1024" enable-background="new 0 0 1024 1024" xml:space="preserve">
  <path fill="#a9b7b7" d="M512 812C229.216 812 0 582.784 0 300s229.216-512 512-512 512 229.216 512 512S794.784 812 512 812zM783.52 441.248l-316.768-316.8c-12.512-12.512-32.768-12.512-45.248 0l-181.024 181.024c-12.512 12.512-12.512 32.768 0 45.248 12.512 12.512 32.768 12.512 45.248 0l158.4-158.4 294.144 294.144c12.512 12.512 32.768 12.512 45.248 0C796.032 474.016 796.032 453.76 783.52 441.248z" transform="translate(0, 812) scale(1, -1)"/>
</svg>
